<svg version="1.0" id="katman_1" xmlns="http://www.w3.org/2000/svg" x="0px" y="0px"
     viewBox="0 0 958.7 564.6" style="enable-background:new 0 0 958.7 564.6;" xml:space="preserve" fill="#0066ff">
<style type="text/css">
	.st0{opacity:0.983;fill-rule:evenodd;clip-rule:evenodd;enable-background:new    ;}
    .st1{fill-rule:evenodd;clip-rule:evenodd;}
    .st2{opacity:0.987;fill-rule:evenodd;clip-rule:evenodd;enable-background:new    ;}
    .st3{opacity:0.985;fill-rule:evenodd;clip-rule:evenodd;enable-background:new    ;}
</style>
    <g>
	<path class="st0" d="M713.7,2.1c12-0.4,23.7,0.5,35,2.5c10.3,3.2,13.2,9.7,8.5,19.5c-14.4,14.9-27.4,30.9-39,48
		c-13,19.7-9.9,36.2,9.5,49.5c13.7,4.7,25.8,1.9,36.5-8.5c13-22.9,23.3-46.5,31-71c5.2-4.5,10.7-5,16.5-1.5
		c27.9,32.9,36.4,70.4,25.5,112.5c-14.3,41.3-42.5,67.8-84.5,79.5c-10.8,2.4-21.6,3.9-32.5,4.5c-59.8,105-119.7,210-179.5,315
		c-20.1,0.2-40.3,0.3-60.6,0.4c-20.1,0.1-40.1,0.1-59.9,0c0-0.1-0.1-0.1-0.1-0.2c-0.6-1.4-80.7-138-119.8-205.2
		c-1.6-2.6-2.6-5.2-3-8c20-33.3,40-66.7,60-100c41.4,69.7,82.4,139.7,123,210c48.7-86.3,97.7-172.3,147-258c0.7-3.1,0.3-6.1-1-9
		c-24.3-41.9-24.7-83.5-1-125C646.6,25.7,676.1,7.3,713.7,2.1z"/>
        <path class="st1" d="M420,552.6"/>
</g>
    <g>
	<path class="st2" d="M296.7,31.1c39.8,1.3,79.7,1.3,119.5,0c40.6,68.6,80.7,137.4,120.5,206.5c-19.1,34-38.5,67.8-58,101.5
		c-0.5,1-1.2,1.2-2,0.5c-40-68.1-79.8-136.3-119.5-204.5c-79.2,139-158.3,278-237.5,417c-20,0.2-40,0.3-60.2,0.4
		c-19.9,0.1-39.8,0.1-59.5,0c6.8-11.9,73.9-129.8,147.8-259.7C154.7,280.8,222.3,162,296.7,31.1z"/>
</g>
    <g>
	<path class="st3" d="M774.7,239.1c61.7,104.2,123,208.7,184,313.5c-40,0.7-80,0.7-120,0c-41.7-70.6-83-141.4-124-212.5
		C734.7,306.4,754.7,272.7,774.7,239.1z"/>
</g>
</svg>
