<svg version="1.0" id="katman_1" xmlns="http://www.w3.org/2000/svg" x="0px" y="0px"
	 viewBox="0 0 3902.7 564.6" style="enable-background:new 0 0 3902.7 564.6;" xml:space="preserve" fill="#0066ff">
<style type="text/css">
	.st0{opacity:0.983;fill-rule:evenodd;clip-rule:evenodd;enable-background:new    ;}
	.st1{fill-rule:evenodd;clip-rule:evenodd;}
	.st2{opacity:0.989;fill-rule:evenodd;clip-rule:evenodd;enable-background:new    ;}
	.st3{opacity:0.99;fill-rule:evenodd;clip-rule:evenodd;enable-background:new    ;}
	.st4{opacity:0.987;fill-rule:evenodd;clip-rule:evenodd;enable-background:new    ;}
	.st5{opacity:0.991;fill-rule:evenodd;clip-rule:evenodd;enable-background:new    ;}
	.st6{opacity:0.986;fill-rule:evenodd;clip-rule:evenodd;enable-background:new    ;}
	.st7{opacity:0.985;fill-rule:evenodd;clip-rule:evenodd;enable-background:new    ;}
</style>
	<g>
	<path class="st0" d="M713.7,2.1c12-0.4,23.7,0.5,35,2.5c10.3,3.2,13.2,9.7,8.5,19.5c-14.4,14.9-27.4,30.9-39,48
		c-13,19.7-9.9,36.2,9.5,49.5c13.7,4.7,25.8,1.9,36.5-8.5c13-22.9,23.3-46.5,31-71c5.2-4.5,10.7-5,16.5-1.5
		c27.9,32.9,36.4,70.4,25.5,112.5c-14.3,41.3-42.5,67.8-84.5,79.5c-10.8,2.4-21.6,3.9-32.5,4.5c-59.8,105-119.7,210-179.5,315
		c-20.1,0.2-40.3,0.3-60.6,0.4c-20.1,0.1-40.1,0.1-59.9,0c0-0.1-0.1-0.1-0.1-0.2c-0.6-1.4-80.7-138-119.8-205.2
		c-1.6-2.6-2.6-5.2-3-8c20-33.3,40-66.7,60-100c41.4,69.7,82.4,139.7,123,210c48.7-86.3,97.7-172.3,147-258c0.7-3.1,0.3-6.1-1-9
		c-24.3-41.9-24.7-83.5-1-125C646.6,25.7,676.1,7.3,713.7,2.1z"/>
		<path class="st1" d="M420,552.6"/>
</g>
	<g>
	<path class="st2" d="M1386.7,22.1c37.7,0,75.3,0,113,0c0,32.3,0,64.7,0,97c-37.7,0-75.3,0-113,0
		C1386.7,86.8,1386.7,54.4,1386.7,22.1z"/>
</g>
	<g>
	<path class="st2" d="M2696.7,22.1c37.7,0,75.3,0,113,0c0,32.3,0,64.7,0,97c-37.7,0-75.3,0-113,0
		C2696.7,86.8,2696.7,54.4,2696.7,22.1z"/>
</g>
	<g>
	<path class="st3" d="M3194.7,24.1c51.9-0.3,103.7,0,155.5,1c61.7,123.8,123.7,247.5,186,371c60.7-123.8,121.7-247.5,183-371
		c51.1-1,102.3-1.3,153.5-1c-89.5,177.4-179.9,354.4-271,531c-43,1.2-86,1.3-129,0.5C3379.4,378.8,3286.7,201.6,3194.7,24.1z"/>
</g>
	<g>
	<path class="st4" d="M296.7,31.1c39.8,1.3,79.7,1.3,119.5,0c40.6,68.6,80.7,137.4,120.5,206.5c-19.1,34-38.5,67.8-58,101.5
		c-0.5,1-1.2,1.2-2,0.5c-40-68.1-79.8-136.3-119.5-204.5c-79.2,139-158.3,278-237.5,417c-20,0.2-40,0.3-60.2,0.4
		c-19.9,0.1-39.8,0.1-59.5,0c6.8-11.9,73.9-129.8,147.8-259.7C154.7,280.8,222.3,162,296.7,31.1z"/>
</g>
	<g>
	<path class="st2" d="M2110.7,74.1c12,0,24,0,36,0c0,36,0,72,0,108c36.7,0,73.3,0,110,0c0,28,0,56,0,84c-36.7,0-73.3,0-110,0
		c-0.2,58,0,116,0.5,174c1.7,21.7,13.2,34.5,34.5,38.5c26.7,2.8,51.7-2.3,75-15.5c1.2,27.3,1.3,54.7,0.5,82
		c-26.5,12.9-54.5,18.9-84,18c-26.3,0.8-51.8-3.4-76.5-12.5c-29.4-13.7-47.2-36.5-53.5-68.5c-2.6-11.5-4.2-23.2-5-35
		c-0.5-60.3-0.7-120.7-0.5-181c-19,0-38,0-57,0c0-14.3,0-28.7,0-43C2052.5,198.3,2095.8,148.6,2110.7,74.1z"/>
</g>
	<g>
	<path class="st4" d="M1126.7,173.1c49.5-3.7,95.8,6.5,139,30.5c44.8,29.1,67.6,70.6,68.5,124.5c0.5,75.3,0.7,150.7,0.5,226
		c-36.7,0-73.3,0-110,0c0.3-6.4,0-12.7-1-19c-28.4,15.4-58.7,24.2-91,26.5c-34.8,4.6-68.8,1.3-102-10c-59-25.4-81.8-69.6-68.5-132.5
		c7-19.4,18.5-35.6,34.5-48.5c21.2-16.1,44.9-27.4,71-34c26.9-6.8,54.2-10.4,82-11c25.3-0.5,50.7-0.7,76-0.5
		c-2.7-32.2-19.3-53.3-50-63.5c-51.4-13.6-98.4-4.7-141,26.5c-21.7-18.3-43-37-64-56c33-26.3,70.3-43.8,112-52.5
		C1097.4,176.6,1112.1,174.5,1126.7,173.1z M1154.7,393.1c23.3,0,46.7,0,70,0c0.3,22.7,0,45.3-1,68c-28.9,15.3-59.8,23.3-92.5,24
		c-19.1,1.1-36.3-4.1-51.5-15.5c-17.3-18-17.3-36,0-54c12.2-9.3,25.8-15.3,41-18C1132.1,395.7,1143.5,394.2,1154.7,393.1z"/>
</g>
	<g>
	<path class="st3" d="M1778.7,173.1c39.1-2.3,76.1,5.2,111,22.5c44,25.4,68.1,63.5,72.5,114.5c0.5,81.3,0.7,162.7,0.5,244
		c-36.3,0-72.7,0-109,0c0.2-76.7,0-153.3-0.5-230c-4.3-34-22.8-56.2-55.5-66.5c-36.8-7.9-71.8-2.9-105,15c-5.3,3-10.3,6.5-15,10.5
		c-1,90.3-1.3,180.7-1,271c-36.7,0-73.3,0-110,0c0-123.7,0-247.3,0-371c36.7,0,73.3,0,110,0c-0.2,8.7,0,17.3,0.5,26
		c11.5-9.3,24.4-16.5,38.5-21.5C1736.2,180,1757.2,175.2,1778.7,173.1z"/>
</g>
	<g>
	<path class="st4" d="M2436.7,173.1c49.5-3.7,95.8,6.5,139,30.5c44.8,29.1,67.6,70.6,68.5,124.5c0.5,75.3,0.7,150.7,0.5,226
		c-36.7,0-73.3,0-110,0c0.3-6.4,0-12.7-1-19c-28.4,15.4-58.7,24.2-91,26.5c-34.8,4.6-68.8,1.3-102-10
		c-58.9-25.4-81.8-69.6-68.5-132.5c7-19.4,18.5-35.6,34.5-48.5c21.2-16.1,44.9-27.4,71-34c26.9-6.8,54.2-10.4,82-11
		c25.3-0.5,50.7-0.7,76-0.5c-2.6-32.2-19.3-53.3-50-63.5c-51.4-13.6-98.4-4.7-141,26.5c-21.6-18.3-43-37-64-56
		c33-26.3,70.4-43.8,112-52.5C2407.4,176.6,2422.1,174.5,2436.7,173.1z M2464.7,393.1c23.3,0,46.7,0,70,0c0.3,22.7,0,45.3-1,68
		c-28.9,15.3-59.8,23.3-92.5,24c-19.1,1.1-36.3-4.1-51.5-15.5c-17.3-18-17.3-36,0-54c12.1-9.3,25.8-15.3,41-18
		C2442.1,395.7,2453.5,394.2,2464.7,393.1z"/>
</g>
	<g>
	<path class="st5" d="M3088.7,173.1c39.1-2.3,76.1,5.2,111,22.5c44,25.4,68.1,63.5,72.5,114.5c0.5,81,0.7,162,0.5,243
		c-36.3,0-72.7,0-109,0c0.2-76.3,0-152.7-0.5-229c-4.4-34-22.9-56.2-55.5-66.5c-36.8-7.9-71.8-2.9-105,15c-5.4,3-10.4,6.5-15,10.5
		c-1,90.3-1.3,180.7-1,271c-36.7,0-73.3,0-110,0c0-123.7,0-247.3,0-371c36.7,0,73.3,0,110,0c-0.2,8.7,0,17.3,0.5,26
		c11.5-9.3,24.4-16.5,38.5-21.5C3046.2,180,3067.2,175.2,3088.7,173.1z"/>
</g>
	<g>
	<path class="st6" d="M1387.7,182.1c37,0,74,0,111,0c0,124,0,248,0,372c-37,0-74,0-111,0C1387.7,430.1,1387.7,306.1,1387.7,182.1z"
	/>
</g>
	<g>
	<path class="st6" d="M2697.7,182.1c37,0,74,0,111,0c0,124,0,248,0,372c-37,0-74,0-111,0C2697.7,430.1,2697.7,306.1,2697.7,182.1z"
	/>
</g>
	<g>
	<path class="st7" d="M774.7,239.1c61.7,104.2,123,208.7,184,313.5c-40,0.7-80,0.7-120,0c-41.7-70.6-83-141.4-124-212.5
		C734.7,306.4,754.7,272.7,774.7,239.1z"/>
</g>
</svg>